Coordinates
version=1
nRows=14
nColumns=24
inDegrees=yes

Units are S.I. units (second, meters, Newtons, ...)
Angles are in degrees.

endheader
time	pelvis_tilt	pelvis_list	pelvis_rotation	pelvis_tx	pelvis_ty	pelvis_tz	hip_flexion_r	hip_adduction_r	hip_rotation_r	knee_angle_r	ankle_angle_r	subtalar_angle_r	mtp_angle_r	hip_flexion_l	hip_adduction_l	hip_rotation_l	knee_angle_l	ankle_angle_l	subtalar_angle_l	mtp_angle_l	lumbar_extension	lumbar_bending	lumbar_rotation
      5.97000000	      0.30491481	     -2.56049342	      3.26586948	     -1.07895210	      0.95021799	      0.27008089	     -3.49502962	      7.49777902	      0.73596744	     -8.63447966	     16.35067757	     -3.62334583	      0.00000000	     29.84539742	     -4.14326885	    -10.00863106	    -46.99336197	     12.31743313	     -6.01085378	      0.00000000	    -22.42391802	      2.40053016	     -4.03423095
      5.98000000	      0.10111591	     -2.67632460	      2.69363678	     -1.06817752	      0.94889375	      0.27061464	     -4.28887565	      7.60472031	      1.24870489	     -8.09891654	     16.64583918	     -3.56123734	      0.00000000	     30.11048060	     -4.21817953	    -10.70463800	    -42.98030639	     12.65824865	     -7.10972620	      0.00000000	    -22.51146689	      2.29626020	     -3.46041159
      5.99000000	     -0.11086038	     -2.87964889	      2.11528863	     -1.05724925	      0.94730869	      0.27108279	     -5.09397079	      7.78817725	      1.75759971	     -7.54481840	     16.90605095	     -3.52253545	      0.00000000	     30.23546290	     -4.36983807	    -11.40993440	    -38.69896174	     12.74214966	     -8.45985415	      0.00000000	    -22.56292451	      2.29488755	     -2.84044814
      6.00000000	     -0.28413675	     -3.17212838	      1.51122552	     -1.04612539	      0.94551811	      0.27151799	     -5.97357442	      8.04917783	      2.30485713	     -6.96252021	     17.12656497	     -3.51786323	      0.00000000	     30.17497448	     -4.61441720	    -12.16978439	    -34.19630468	     12.63918274	     -9.90041254	      0.00000000	    -22.63223072	      2.39039034	     -2.16130147
      6.01000000	     -0.40045496	     -3.55269338	      0.89156277	     -1.03477474	      0.94355226	      0.27191617	     -6.95774984	      8.38424992	      2.88177212	     -6.34089410	     17.29599210	     -3.55106807	      0.00000000	     29.93024302	     -4.94400923	    -13.00372870	    -29.53392031	     12.40827008	    -11.25496163	      0.00000000	    -22.74100912	      2.57976320	     -1.43098294
      6.02000000	     -0.45954198	     -4.02541188	      0.26248425	     -1.02318195	      0.94141900	      0.27222766	     -8.04539014	      8.78743512	      3.47652651	     -5.69495734	     17.42099861	     -3.58063223	      0.00000000	     29.53993592	     -5.35011274	    -13.90282607	    -24.81557594	     12.10122151	    -12.34821971	      0.00000000	    -22.88709161	      2.87821914	     -0.66241335
      6.03000000	     -0.34422451	     -4.59251278	     -0.35509510	     -1.01139831	      0.93930538	      0.27243059	     -9.36593945	      9.25290804	      4.12205568	     -5.02184988	     17.47392454	     -3.59712654	      0.00000000	     28.92665951	     -5.83018131	    -14.86343213	    -20.16732600	     11.81882497	    -12.93861901	      0.00000000	    -23.23786541	      3.28906568	      0.12134521
      6.04000000	     -0.41641351	     -5.21871784	     -1.00378065	     -0.99934161	      0.93675723	      0.27250510	    -10.47576490	      9.73679101	      4.61298602	     -4.43312352	     17.60646119	     -3.41087297	      0.00000000	     28.51038892	     -6.33643428	    -15.76709453	    -15.71252821	     11.45801145	    -13.11494336	      0.00000000	    -23.31566063	      3.77414251	      0.97305453
      6.05000000	     -0.26799476	     -5.88464580	     -1.60848885	     -0.98715814	      0.93441213	      0.27243284	    -11.83674487	     10.21732384	      5.09552256	     -3.86937024	     17.66526727	     -3.14508196	      0.00000000	     27.88846246	     -6.85218048	    -16.57064082	    -11.58391792	     11.11329052	    -12.68028954	      0.00000000	    -23.67576056	      4.30247706	      1.82574393
      6.06000000	     -0.19766896	     -6.57498510	     -2.22720980	     -0.97482204	      0.93186747	      0.27222537	    -13.06640774	     10.67798532	      5.49234570	     -3.45413974	     17.81466183	     -2.69437505	      0.00000000	     27.38290645	     -7.37405436	    -17.00277885	     -7.87385335	     10.72399204	    -12.04108019	      0.00000000	    -23.93489448	      4.86675829	      2.66682985
      6.07000000	     -0.07605825	     -7.24506017	     -2.80869791	     -0.96239100	      0.92940053	      0.27188456	    -14.29810286	     11.07864908	      5.83115774	     -3.17418662	     17.97955403	     -2.10782140	      0.00000000	     26.87376739	     -7.88038872	    -16.95678630	     -4.68271695	     10.22801102	    -11.33913959	      0.00000000	    -24.26889606	      5.41166137	      3.48813901
      6.08000000	      0.06177691	     -7.85600357	     -3.37637391	     -0.94984305	      0.92701909	      0.27151078	    -15.46596494	     11.38615565	      6.11863009	     -3.07520439	     18.18102068	     -1.41445604	      0.00000000	     26.39314505	     -8.38003414	    -16.34638234	     -2.08019313	      9.65046228	    -10.81869000	      0.00000000	    -24.62208077	      5.87315124	      4.27853075
      6.09000000	      0.19751611	     -8.38223430	     -3.94613938	     -0.93716864	      0.92475311	      0.27116002	    -16.53345426	     11.57808893	      6.37253032	     -3.17824639	     18.41809146	     -0.63272069	      0.00000000	     25.96900240	     -8.88117643	    -15.22764176	     -0.13738693	      9.03673975	    -10.61039882	      0.00000000	    -24.96552861	      6.21353796	      5.04572479
      6.10000000	      0.31917107	     -8.80835338	     -4.49214564	     -0.92436067	      0.92260994	      0.27082025	    -17.48071282	     11.65224807	      6.58746285	     -3.47784591	     18.67028208	      0.19709560	      0.00000000	     25.64759570	     -9.36339793	    -13.70290422	      1.07257200	      8.47179904	    -10.69541432	      0.00000000	    -25.27402723	      6.42372090	      5.75796239
